<mxfile host="app.diagrams.net" agent="Mozilla/5.0 (Windows NT 10.0; Win64; x64) AppleWebKit/537.36 (KHTML, like Gecko) Chrome/138.0.0.0 Safari/537.36 Edg/138.0.0.0" version="28.0.7">
  <diagram name="Page-1" id="qEtK4CYPQ_lM7GusHUAZ">
    <mxGraphModel dx="1818" dy="743" grid="1" gridSize="10" guides="1" tooltips="1" connect="1" arrows="1" fold="1" page="1" pageScale="1" pageWidth="850" pageHeight="1100" math="0" shadow="0">
      <root>
        <mxCell id="0" />
        <mxCell id="1" parent="0" />
        <mxCell id="RgCG5Li9tSHn9rsyd1P--2" value="" style="rounded=0;whiteSpace=wrap;html=1;" vertex="1" parent="1">
          <mxGeometry x="-840" y="50" width="2510" height="1940" as="geometry" />
        </mxCell>
        <mxCell id="RgCG5Li9tSHn9rsyd1P--35" value="" style="rounded=0;whiteSpace=wrap;html=1;" vertex="1" parent="1">
          <mxGeometry x="-650" y="520" width="500" height="565" as="geometry" />
        </mxCell>
        <mxCell id="RgCG5Li9tSHn9rsyd1P--13" style="rounded=0;orthogonalLoop=1;jettySize=auto;html=1;entryX=0;entryY=0.5;entryDx=0;entryDy=0;exitX=1;exitY=0.3333333333333333;exitDx=0;exitDy=0;exitPerimeter=0;" edge="1" parent="1" source="RgCG5Li9tSHn9rsyd1P--4" target="RgCG5Li9tSHn9rsyd1P--7">
          <mxGeometry relative="1" as="geometry" />
        </mxCell>
        <mxCell id="RgCG5Li9tSHn9rsyd1P--4" value="编译开发人员" style="shape=umlActor;verticalLabelPosition=bottom;verticalAlign=top;html=1;outlineConnect=0;" vertex="1" parent="1">
          <mxGeometry x="-780" y="220" width="30" height="60" as="geometry" />
        </mxCell>
        <mxCell id="RgCG5Li9tSHn9rsyd1P--7" value="&lt;span style=&quot;font-size:10.5pt;mso-bidi-font-size:10.0pt;&lt;br/&gt;font-family:宋体;mso-bidi-font-family:宋体;mso-font-kerning:1.0pt;mso-ansi-language:&lt;br/&gt;EN-US;mso-fareast-language:ZH-CN;mso-bidi-language:AR-SA&quot;&gt;构建请求初始化&lt;/span&gt;" style="ellipse;whiteSpace=wrap;html=1;" vertex="1" parent="1">
          <mxGeometry x="-610" y="60" width="120" height="60" as="geometry" />
        </mxCell>
        <mxCell id="RgCG5Li9tSHn9rsyd1P--8" value="&lt;span style=&quot;font-size: 14px;&quot;&gt;任务分解和封装&lt;/span&gt;" style="ellipse;whiteSpace=wrap;html=1;" vertex="1" parent="1">
          <mxGeometry x="-610" y="140" width="120" height="60" as="geometry" />
        </mxCell>
        <mxCell id="RgCG5Li9tSHn9rsyd1P--9" value="&lt;span style=&quot;font-size: 14px;&quot;&gt;缓存匹配与命中&lt;/span&gt;" style="ellipse;whiteSpace=wrap;html=1;" vertex="1" parent="1">
          <mxGeometry x="-610" y="284" width="120" height="60" as="geometry" />
        </mxCell>
        <mxCell id="RgCG5Li9tSHn9rsyd1P--11" value="&lt;span style=&quot;font-size: 14px;&quot;&gt;任务调度分发&lt;/span&gt;" style="ellipse;whiteSpace=wrap;html=1;" vertex="1" parent="1">
          <mxGeometry x="-610" y="210" width="120" height="60" as="geometry" />
        </mxCell>
        <mxCell id="RgCG5Li9tSHn9rsyd1P--12" value="&lt;span style=&quot;font-size: 14px;&quot;&gt;远程任务执行&lt;/span&gt;" style="ellipse;whiteSpace=wrap;html=1;" vertex="1" parent="1">
          <mxGeometry x="-607" y="360" width="120" height="60" as="geometry" />
        </mxCell>
        <mxCell id="RgCG5Li9tSHn9rsyd1P--14" style="rounded=0;orthogonalLoop=1;jettySize=auto;html=1;entryX=0;entryY=0.5;entryDx=0;entryDy=0;exitX=1;exitY=0.3333333333333333;exitDx=0;exitDy=0;exitPerimeter=0;" edge="1" parent="1" source="RgCG5Li9tSHn9rsyd1P--4" target="RgCG5Li9tSHn9rsyd1P--8">
          <mxGeometry relative="1" as="geometry">
            <mxPoint x="-700" y="330" as="sourcePoint" />
            <mxPoint x="-560" y="180" as="targetPoint" />
          </mxGeometry>
        </mxCell>
        <mxCell id="RgCG5Li9tSHn9rsyd1P--15" style="rounded=0;orthogonalLoop=1;jettySize=auto;html=1;entryX=0;entryY=0.5;entryDx=0;entryDy=0;exitX=1;exitY=0.3333333333333333;exitDx=0;exitDy=0;exitPerimeter=0;" edge="1" parent="1" source="RgCG5Li9tSHn9rsyd1P--4" target="RgCG5Li9tSHn9rsyd1P--11">
          <mxGeometry relative="1" as="geometry">
            <mxPoint x="-660" y="360" as="sourcePoint" />
            <mxPoint x="-520" y="210" as="targetPoint" />
          </mxGeometry>
        </mxCell>
        <mxCell id="RgCG5Li9tSHn9rsyd1P--16" style="rounded=0;orthogonalLoop=1;jettySize=auto;html=1;entryX=0;entryY=0.5;entryDx=0;entryDy=0;" edge="1" parent="1" target="RgCG5Li9tSHn9rsyd1P--9">
          <mxGeometry relative="1" as="geometry">
            <mxPoint x="-750" y="240" as="sourcePoint" />
            <mxPoint x="-500" y="260" as="targetPoint" />
          </mxGeometry>
        </mxCell>
        <mxCell id="RgCG5Li9tSHn9rsyd1P--17" style="rounded=0;orthogonalLoop=1;jettySize=auto;html=1;entryX=0;entryY=0.5;entryDx=0;entryDy=0;" edge="1" parent="1" target="RgCG5Li9tSHn9rsyd1P--12">
          <mxGeometry relative="1" as="geometry">
            <mxPoint x="-750" y="240" as="sourcePoint" />
            <mxPoint x="-550" y="300" as="targetPoint" />
          </mxGeometry>
        </mxCell>
        <mxCell id="RgCG5Li9tSHn9rsyd1P--34" style="rounded=0;orthogonalLoop=1;jettySize=auto;html=1;entryX=0;entryY=0.5;entryDx=0;entryDy=0;" edge="1" parent="1" target="RgCG5Li9tSHn9rsyd1P--20">
          <mxGeometry relative="1" as="geometry">
            <mxPoint x="-730" y="770" as="sourcePoint" />
          </mxGeometry>
        </mxCell>
        <mxCell id="RgCG5Li9tSHn9rsyd1P--18" value="&lt;font style=&quot;font-size: 15px;&quot;&gt;编译开发人员&lt;/font&gt;" style="shape=umlActor;verticalLabelPosition=bottom;verticalAlign=top;html=1;outlineConnect=0;" vertex="1" parent="1">
          <mxGeometry x="-760" y="750" width="30" height="60" as="geometry" />
        </mxCell>
        <mxCell id="RgCG5Li9tSHn9rsyd1P--19" value="&lt;font style=&quot;font-size: 16px;&quot;&gt;Ninja客户端&lt;/font&gt;" style="shape=umlActor;verticalLabelPosition=bottom;verticalAlign=top;html=1;outlineConnect=0;" vertex="1" parent="1">
          <mxGeometry x="-100" y="750" width="30" height="60" as="geometry" />
        </mxCell>
        <mxCell id="RgCG5Li9tSHn9rsyd1P--20" value="&lt;font style=&quot;font-size: 16px;&quot;&gt;发起构建请求&lt;/font&gt;" style="ellipse;whiteSpace=wrap;html=1;" vertex="1" parent="1">
          <mxGeometry x="-610" y="620" width="130" height="70" as="geometry" />
        </mxCell>
        <mxCell id="RgCG5Li9tSHn9rsyd1P--21" value="&lt;font style=&quot;font-size: 15px;&quot;&gt;接收构建请求&lt;/font&gt;" style="ellipse;whiteSpace=wrap;html=1;" vertex="1" parent="1">
          <mxGeometry x="-375" y="560" width="130" height="70" as="geometry" />
        </mxCell>
        <mxCell id="RgCG5Li9tSHn9rsyd1P--22" value="&lt;font style=&quot;font-size: 15px;&quot;&gt;加载构建配置&lt;/font&gt;" style="ellipse;whiteSpace=wrap;html=1;" vertex="1" parent="1">
          <mxGeometry x="-400" y="645" width="130" height="70" as="geometry" />
        </mxCell>
        <mxCell id="RgCG5Li9tSHn9rsyd1P--24" value="&lt;font style=&quot;font-size: 15px;&quot;&gt;检查完整性&lt;/font&gt;" style="ellipse;whiteSpace=wrap;html=1;" vertex="1" parent="1">
          <mxGeometry x="-390" y="730" width="130" height="70" as="geometry" />
        </mxCell>
        <mxCell id="RgCG5Li9tSHn9rsyd1P--25" value="&lt;font style=&quot;font-size: 16px;&quot;&gt;读取依赖文件&lt;/font&gt;" style="ellipse;whiteSpace=wrap;html=1;" vertex="1" parent="1">
          <mxGeometry x="-375" y="900" width="120" height="70" as="geometry" />
        </mxCell>
        <mxCell id="RgCG5Li9tSHn9rsyd1P--26" value="&lt;font style=&quot;font-size: 16px;&quot;&gt;任务生成&lt;/font&gt;" style="ellipse;whiteSpace=wrap;html=1;" vertex="1" parent="1">
          <mxGeometry x="-375" y="810" width="130" height="70" as="geometry" />
        </mxCell>
        <mxCell id="RgCG5Li9tSHn9rsyd1P--27" value="&lt;font style=&quot;font-size: 17px;&quot;&gt;依赖头文件&lt;/font&gt;" style="ellipse;whiteSpace=wrap;html=1;" vertex="1" parent="1">
          <mxGeometry x="-640" y="810" width="127" height="70" as="geometry" />
        </mxCell>
        <mxCell id="RgCG5Li9tSHn9rsyd1P--28" value="&lt;font style=&quot;font-size: 16px;&quot;&gt;构造 Merkle Tree&lt;/font&gt;" style="ellipse;whiteSpace=wrap;html=1;" vertex="1" parent="1">
          <mxGeometry x="-614" y="890" width="127" height="70" as="geometry" />
        </mxCell>
        <mxCell id="RgCG5Li9tSHn9rsyd1P--29" value="&lt;font style=&quot;font-size: 16px;&quot;&gt;构造 Action&lt;/font&gt;" style="ellipse;whiteSpace=wrap;html=1;" vertex="1" parent="1">
          <mxGeometry x="-617" y="715" width="127" height="70" as="geometry" />
        </mxCell>
        <mxCell id="RgCG5Li9tSHn9rsyd1P--30" value="&lt;font style=&quot;font-size: 16px;&quot;&gt;构造 ExecuteRequest&lt;/font&gt;" style="ellipse;whiteSpace=wrap;html=1;" vertex="1" parent="1">
          <mxGeometry x="-620.5" y="990" width="134" height="70" as="geometry" />
        </mxCell>
        <mxCell id="RgCG5Li9tSHn9rsyd1P--33" value="&lt;font style=&quot;font-size: 17px;&quot;&gt;读取缓存&lt;/font&gt;" style="ellipse;whiteSpace=wrap;html=1;" vertex="1" parent="1">
          <mxGeometry x="-375" y="990" width="130" height="70" as="geometry" />
        </mxCell>
        <mxCell id="RgCG5Li9tSHn9rsyd1P--36" style="rounded=0;orthogonalLoop=1;jettySize=auto;html=1;entryX=1;entryY=0.5;entryDx=0;entryDy=0;exitX=0;exitY=0.3333333333333333;exitDx=0;exitDy=0;exitPerimeter=0;" edge="1" parent="1" source="RgCG5Li9tSHn9rsyd1P--19" target="RgCG5Li9tSHn9rsyd1P--21">
          <mxGeometry relative="1" as="geometry">
            <mxPoint x="-690" y="840" as="sourcePoint" />
            <mxPoint x="-570" y="720" as="targetPoint" />
          </mxGeometry>
        </mxCell>
        <mxCell id="RgCG5Li9tSHn9rsyd1P--37" style="rounded=0;orthogonalLoop=1;jettySize=auto;html=1;entryX=1;entryY=0.5;entryDx=0;entryDy=0;" edge="1" parent="1" source="RgCG5Li9tSHn9rsyd1P--19" target="RgCG5Li9tSHn9rsyd1P--22">
          <mxGeometry relative="1" as="geometry">
            <mxPoint x="-100" y="770" as="sourcePoint" />
            <mxPoint x="-140" y="710" as="targetPoint" />
          </mxGeometry>
        </mxCell>
        <mxCell id="RgCG5Li9tSHn9rsyd1P--38" style="rounded=0;orthogonalLoop=1;jettySize=auto;html=1;entryX=1;entryY=0.5;entryDx=0;entryDy=0;exitX=0;exitY=0.3333333333333333;exitDx=0;exitDy=0;exitPerimeter=0;" edge="1" parent="1" source="RgCG5Li9tSHn9rsyd1P--19" target="RgCG5Li9tSHn9rsyd1P--24">
          <mxGeometry relative="1" as="geometry">
            <mxPoint x="-100" y="770" as="sourcePoint" />
            <mxPoint x="-130" y="780" as="targetPoint" />
          </mxGeometry>
        </mxCell>
        <mxCell id="RgCG5Li9tSHn9rsyd1P--39" style="rounded=0;orthogonalLoop=1;jettySize=auto;html=1;entryX=1;entryY=0.5;entryDx=0;entryDy=0;exitX=0;exitY=0.3333333333333333;exitDx=0;exitDy=0;exitPerimeter=0;" edge="1" parent="1" source="RgCG5Li9tSHn9rsyd1P--19" target="RgCG5Li9tSHn9rsyd1P--26">
          <mxGeometry relative="1" as="geometry">
            <mxPoint x="-100" y="770" as="sourcePoint" />
            <mxPoint x="-180" y="830" as="targetPoint" />
          </mxGeometry>
        </mxCell>
        <mxCell id="RgCG5Li9tSHn9rsyd1P--40" style="rounded=0;orthogonalLoop=1;jettySize=auto;html=1;entryX=1.025;entryY=0.535;entryDx=0;entryDy=0;entryPerimeter=0;exitX=0;exitY=0.3333333333333333;exitDx=0;exitDy=0;exitPerimeter=0;" edge="1" parent="1" source="RgCG5Li9tSHn9rsyd1P--19" target="RgCG5Li9tSHn9rsyd1P--25">
          <mxGeometry relative="1" as="geometry">
            <mxPoint x="-100" y="770" as="sourcePoint" />
            <mxPoint x="-210" y="870" as="targetPoint" />
          </mxGeometry>
        </mxCell>
        <mxCell id="RgCG5Li9tSHn9rsyd1P--41" style="rounded=0;orthogonalLoop=1;jettySize=auto;html=1;entryX=1;entryY=0.5;entryDx=0;entryDy=0;exitX=0;exitY=0.3333333333333333;exitDx=0;exitDy=0;exitPerimeter=0;" edge="1" parent="1" source="RgCG5Li9tSHn9rsyd1P--19" target="RgCG5Li9tSHn9rsyd1P--33">
          <mxGeometry relative="1" as="geometry">
            <mxPoint x="-100" y="770" as="sourcePoint" />
            <mxPoint x="-190" y="890" as="targetPoint" />
          </mxGeometry>
        </mxCell>
        <mxCell id="RgCG5Li9tSHn9rsyd1P--42" style="rounded=0;orthogonalLoop=1;jettySize=auto;html=1;entryX=1;entryY=0.5;entryDx=0;entryDy=0;exitX=0;exitY=0.5;exitDx=0;exitDy=0;dashed=1;" edge="1" parent="1" source="RgCG5Li9tSHn9rsyd1P--26" target="RgCG5Li9tSHn9rsyd1P--29">
          <mxGeometry relative="1" as="geometry">
            <mxPoint x="-60" y="770" as="sourcePoint" />
            <mxPoint x="-190" y="760" as="targetPoint" />
          </mxGeometry>
        </mxCell>
        <mxCell id="RgCG5Li9tSHn9rsyd1P--43" value="&lt;font style=&quot;font-size: 13px;&quot;&gt;&amp;lt;&amp;lt;include&amp;gt;&amp;gt;&lt;/font&gt;" style="edgeLabel;html=1;align=center;verticalAlign=middle;resizable=0;points=[];rotation=30;" vertex="1" connectable="0" parent="RgCG5Li9tSHn9rsyd1P--42">
          <mxGeometry x="0.0307" y="3" relative="1" as="geometry">
            <mxPoint x="2" y="-4" as="offset" />
          </mxGeometry>
        </mxCell>
        <mxCell id="RgCG5Li9tSHn9rsyd1P--44" style="rounded=0;orthogonalLoop=1;jettySize=auto;html=1;entryX=1;entryY=0.5;entryDx=0;entryDy=0;exitX=0;exitY=0.5;exitDx=0;exitDy=0;dashed=1;" edge="1" parent="1" source="RgCG5Li9tSHn9rsyd1P--26" target="RgCG5Li9tSHn9rsyd1P--27">
          <mxGeometry relative="1" as="geometry">
            <mxPoint x="-263" y="910" as="sourcePoint" />
            <mxPoint x="-400" y="820" as="targetPoint" />
          </mxGeometry>
        </mxCell>
        <mxCell id="RgCG5Li9tSHn9rsyd1P--45" value="&lt;font style=&quot;font-size: 14px;&quot;&gt;&amp;lt;&amp;lt;include&amp;gt;&amp;gt;&lt;/font&gt;" style="edgeLabel;html=1;align=center;verticalAlign=middle;resizable=0;points=[];rotation=0;" vertex="1" connectable="0" parent="RgCG5Li9tSHn9rsyd1P--44">
          <mxGeometry x="0.0307" y="3" relative="1" as="geometry">
            <mxPoint x="1" y="-3" as="offset" />
          </mxGeometry>
        </mxCell>
        <mxCell id="RgCG5Li9tSHn9rsyd1P--46" style="rounded=0;orthogonalLoop=1;jettySize=auto;html=1;entryX=1;entryY=0.5;entryDx=0;entryDy=0;exitX=0;exitY=0.5;exitDx=0;exitDy=0;dashed=1;" edge="1" parent="1" source="RgCG5Li9tSHn9rsyd1P--26" target="RgCG5Li9tSHn9rsyd1P--28">
          <mxGeometry relative="1" as="geometry">
            <mxPoint x="-283" y="1000" as="sourcePoint" />
            <mxPoint x="-420" y="910" as="targetPoint" />
          </mxGeometry>
        </mxCell>
        <mxCell id="RgCG5Li9tSHn9rsyd1P--47" value="&lt;font style=&quot;font-size: 14px;&quot;&gt;&amp;lt;&amp;lt;include&amp;gt;&amp;gt;&lt;/font&gt;" style="edgeLabel;html=1;align=center;verticalAlign=middle;resizable=0;points=[];rotation=-30;" vertex="1" connectable="0" parent="RgCG5Li9tSHn9rsyd1P--46">
          <mxGeometry x="0.0307" y="3" relative="1" as="geometry">
            <mxPoint x="-1" y="-4" as="offset" />
          </mxGeometry>
        </mxCell>
        <mxCell id="RgCG5Li9tSHn9rsyd1P--48" style="rounded=0;orthogonalLoop=1;jettySize=auto;html=1;entryX=1;entryY=0.5;entryDx=0;entryDy=0;exitX=0;exitY=0.5;exitDx=0;exitDy=0;dashed=1;" edge="1" parent="1" source="RgCG5Li9tSHn9rsyd1P--26" target="RgCG5Li9tSHn9rsyd1P--30">
          <mxGeometry relative="1" as="geometry">
            <mxPoint x="-273" y="1020" as="sourcePoint" />
            <mxPoint x="-410" y="930" as="targetPoint" />
          </mxGeometry>
        </mxCell>
        <mxCell id="RgCG5Li9tSHn9rsyd1P--49" value="&lt;font style=&quot;font-size: 14px;&quot;&gt;&amp;lt;&amp;lt;include&amp;gt;&amp;gt;&lt;/font&gt;" style="edgeLabel;html=1;align=center;verticalAlign=middle;resizable=0;points=[];rotation=-50;" vertex="1" connectable="0" parent="RgCG5Li9tSHn9rsyd1P--48">
          <mxGeometry x="0.0307" y="3" relative="1" as="geometry">
            <mxPoint x="-2" y="-4" as="offset" />
          </mxGeometry>
        </mxCell>
        <mxCell id="RgCG5Li9tSHn9rsyd1P--50" value="&lt;font style=&quot;font-size: 16px;&quot;&gt;构建初始化需求用例图&lt;/font&gt;" style="text;html=1;align=center;verticalAlign=middle;whiteSpace=wrap;rounded=0;" vertex="1" parent="1">
          <mxGeometry x="-490" y="520" width="180" height="30" as="geometry" />
        </mxCell>
        <mxCell id="RgCG5Li9tSHn9rsyd1P--52" value="" style="rounded=0;whiteSpace=wrap;html=1;" vertex="1" parent="1">
          <mxGeometry x="190" y="90" width="500" height="565" as="geometry" />
        </mxCell>
        <mxCell id="RgCG5Li9tSHn9rsyd1P--53" style="rounded=0;orthogonalLoop=1;jettySize=auto;html=1;entryX=0;entryY=0.5;entryDx=0;entryDy=0;" edge="1" parent="1" target="RgCG5Li9tSHn9rsyd1P--56">
          <mxGeometry relative="1" as="geometry">
            <mxPoint x="110" y="340" as="sourcePoint" />
          </mxGeometry>
        </mxCell>
        <mxCell id="RgCG5Li9tSHn9rsyd1P--54" value="&lt;font style=&quot;font-size: 15px;&quot;&gt;Ninja客户端&lt;/font&gt;" style="shape=umlActor;verticalLabelPosition=bottom;verticalAlign=top;html=1;outlineConnect=0;" vertex="1" parent="1">
          <mxGeometry x="80" y="320" width="30" height="60" as="geometry" />
        </mxCell>
        <mxCell id="RgCG5Li9tSHn9rsyd1P--56" value="&lt;font style=&quot;font-size: 16px;&quot;&gt;解析构建图 DAG&lt;/font&gt;" style="ellipse;whiteSpace=wrap;html=1;" vertex="1" parent="1">
          <mxGeometry x="253" y="160" width="130" height="70" as="geometry" />
        </mxCell>
        <mxCell id="RgCG5Li9tSHn9rsyd1P--57" value="&lt;font style=&quot;font-size: 15px;&quot;&gt;任务是否能远程&lt;/font&gt;" style="ellipse;whiteSpace=wrap;html=1;" vertex="1" parent="1">
          <mxGeometry x="530" y="150" width="130" height="70" as="geometry" />
        </mxCell>
        <mxCell id="RgCG5Li9tSHn9rsyd1P--58" value="&lt;font style=&quot;font-size: 15px;&quot;&gt;任务是否需要编译&lt;/font&gt;" style="ellipse;whiteSpace=wrap;html=1;" vertex="1" parent="1">
          <mxGeometry x="550" y="240" width="130" height="70" as="geometry" />
        </mxCell>
        <mxCell id="RgCG5Li9tSHn9rsyd1P--59" value="&lt;font style=&quot;font-size: 15px;&quot;&gt;缓存是否命中&lt;/font&gt;" style="ellipse;whiteSpace=wrap;html=1;" vertex="1" parent="1">
          <mxGeometry x="520" y="337.5" width="130" height="70" as="geometry" />
        </mxCell>
        <mxCell id="RgCG5Li9tSHn9rsyd1P--62" value="&lt;font style=&quot;font-size: 17px;&quot;&gt;输入输出映射&lt;/font&gt;" style="ellipse;whiteSpace=wrap;html=1;" vertex="1" parent="1">
          <mxGeometry x="256" y="360" width="127" height="70" as="geometry" />
        </mxCell>
        <mxCell id="RgCG5Li9tSHn9rsyd1P--63" value="&lt;span style=&quot;font-size: 16px;&quot;&gt;生成任务队列&lt;/span&gt;" style="ellipse;whiteSpace=wrap;html=1;" vertex="1" parent="1">
          <mxGeometry x="253" y="550" width="127" height="70" as="geometry" />
        </mxCell>
        <mxCell id="RgCG5Li9tSHn9rsyd1P--64" value="&lt;span style=&quot;font-size: 16px;&quot;&gt;标识构建任务&lt;/span&gt;" style="ellipse;whiteSpace=wrap;html=1;" vertex="1" parent="1">
          <mxGeometry x="253" y="250" width="127" height="70" as="geometry" />
        </mxCell>
        <mxCell id="RgCG5Li9tSHn9rsyd1P--65" value="&lt;font style=&quot;font-size: 16px;&quot;&gt;封装远程执行任务&lt;/font&gt;" style="ellipse;whiteSpace=wrap;html=1;" vertex="1" parent="1">
          <mxGeometry x="253" y="460" width="134" height="70" as="geometry" />
        </mxCell>
        <mxCell id="RgCG5Li9tSHn9rsyd1P--75" style="rounded=0;orthogonalLoop=1;jettySize=auto;html=1;entryX=0;entryY=0.5;entryDx=0;entryDy=0;exitX=1;exitY=0.5;exitDx=0;exitDy=0;dashed=1;" edge="1" parent="1" source="RgCG5Li9tSHn9rsyd1P--64" target="RgCG5Li9tSHn9rsyd1P--57">
          <mxGeometry relative="1" as="geometry">
            <mxPoint x="577" y="480" as="sourcePoint" />
            <mxPoint x="440" y="390" as="targetPoint" />
          </mxGeometry>
        </mxCell>
        <mxCell id="RgCG5Li9tSHn9rsyd1P--76" value="&lt;font style=&quot;font-size: 14px;&quot;&gt;&amp;lt;&amp;lt;include&amp;gt;&amp;gt;&lt;/font&gt;" style="edgeLabel;html=1;align=center;verticalAlign=middle;resizable=0;points=[];rotation=-30;" vertex="1" connectable="0" parent="RgCG5Li9tSHn9rsyd1P--75">
          <mxGeometry x="0.0307" y="3" relative="1" as="geometry">
            <mxPoint x="-7" y="-6" as="offset" />
          </mxGeometry>
        </mxCell>
        <mxCell id="RgCG5Li9tSHn9rsyd1P--77" style="rounded=0;orthogonalLoop=1;jettySize=auto;html=1;entryX=0;entryY=0.5;entryDx=0;entryDy=0;exitX=1;exitY=0.5;exitDx=0;exitDy=0;dashed=1;" edge="1" parent="1" source="RgCG5Li9tSHn9rsyd1P--64" target="RgCG5Li9tSHn9rsyd1P--59">
          <mxGeometry relative="1" as="geometry">
            <mxPoint x="557" y="570" as="sourcePoint" />
            <mxPoint x="420" y="480" as="targetPoint" />
          </mxGeometry>
        </mxCell>
        <mxCell id="RgCG5Li9tSHn9rsyd1P--78" value="&lt;font style=&quot;font-size: 14px;&quot;&gt;&amp;lt;&amp;lt;include&amp;gt;&amp;gt;&lt;/font&gt;" style="edgeLabel;html=1;align=center;verticalAlign=middle;resizable=0;points=[];rotation=30;" vertex="1" connectable="0" parent="RgCG5Li9tSHn9rsyd1P--77">
          <mxGeometry x="0.0307" y="3" relative="1" as="geometry">
            <mxPoint x="12" y="-5" as="offset" />
          </mxGeometry>
        </mxCell>
        <mxCell id="RgCG5Li9tSHn9rsyd1P--79" style="rounded=0;orthogonalLoop=1;jettySize=auto;html=1;entryX=0;entryY=0.5;entryDx=0;entryDy=0;exitX=1;exitY=0.5;exitDx=0;exitDy=0;dashed=1;" edge="1" parent="1" source="RgCG5Li9tSHn9rsyd1P--64" target="RgCG5Li9tSHn9rsyd1P--58">
          <mxGeometry relative="1" as="geometry">
            <mxPoint x="567" y="590" as="sourcePoint" />
            <mxPoint x="430" y="500" as="targetPoint" />
          </mxGeometry>
        </mxCell>
        <mxCell id="RgCG5Li9tSHn9rsyd1P--80" value="&lt;font style=&quot;font-size: 14px;&quot;&gt;&amp;lt;&amp;lt;include&amp;gt;&amp;gt;&lt;/font&gt;" style="edgeLabel;html=1;align=center;verticalAlign=middle;resizable=0;points=[];rotation=-5;" vertex="1" connectable="0" parent="RgCG5Li9tSHn9rsyd1P--79">
          <mxGeometry x="0.0307" y="3" relative="1" as="geometry">
            <mxPoint x="8" y="-12" as="offset" />
          </mxGeometry>
        </mxCell>
        <mxCell id="RgCG5Li9tSHn9rsyd1P--81" value="&lt;font style=&quot;font-size: 16px;&quot;&gt;任务分解封装需求用例图&lt;/font&gt;" style="text;html=1;align=center;verticalAlign=middle;whiteSpace=wrap;rounded=0;" vertex="1" parent="1">
          <mxGeometry x="350" y="90" width="180" height="30" as="geometry" />
        </mxCell>
        <mxCell id="RgCG5Li9tSHn9rsyd1P--82" style="rounded=0;orthogonalLoop=1;jettySize=auto;html=1;entryX=0;entryY=0.5;entryDx=0;entryDy=0;" edge="1" parent="1" target="RgCG5Li9tSHn9rsyd1P--64">
          <mxGeometry relative="1" as="geometry">
            <mxPoint x="110" y="340" as="sourcePoint" />
            <mxPoint x="283" y="300" as="targetPoint" />
          </mxGeometry>
        </mxCell>
        <mxCell id="RgCG5Li9tSHn9rsyd1P--83" style="rounded=0;orthogonalLoop=1;jettySize=auto;html=1;entryX=0;entryY=0.5;entryDx=0;entryDy=0;exitX=1;exitY=0.3333333333333333;exitDx=0;exitDy=0;exitPerimeter=0;" edge="1" parent="1" source="RgCG5Li9tSHn9rsyd1P--54" target="RgCG5Li9tSHn9rsyd1P--62">
          <mxGeometry relative="1" as="geometry">
            <mxPoint x="200" y="495" as="sourcePoint" />
            <mxPoint x="343" y="350" as="targetPoint" />
          </mxGeometry>
        </mxCell>
        <mxCell id="RgCG5Li9tSHn9rsyd1P--84" style="rounded=0;orthogonalLoop=1;jettySize=auto;html=1;entryX=0;entryY=0.5;entryDx=0;entryDy=0;exitX=1;exitY=0.3333333333333333;exitDx=0;exitDy=0;exitPerimeter=0;" edge="1" parent="1" source="RgCG5Li9tSHn9rsyd1P--54" target="RgCG5Li9tSHn9rsyd1P--65">
          <mxGeometry relative="1" as="geometry">
            <mxPoint x="150" y="545" as="sourcePoint" />
            <mxPoint x="293" y="400" as="targetPoint" />
          </mxGeometry>
        </mxCell>
        <mxCell id="RgCG5Li9tSHn9rsyd1P--85" style="rounded=0;orthogonalLoop=1;jettySize=auto;html=1;entryX=0;entryY=0.5;entryDx=0;entryDy=0;exitX=1;exitY=0.3333333333333333;exitDx=0;exitDy=0;exitPerimeter=0;" edge="1" parent="1" source="RgCG5Li9tSHn9rsyd1P--54" target="RgCG5Li9tSHn9rsyd1P--63">
          <mxGeometry relative="1" as="geometry">
            <mxPoint x="170" y="575" as="sourcePoint" />
            <mxPoint x="313" y="430" as="targetPoint" />
          </mxGeometry>
        </mxCell>
        <mxCell id="RgCG5Li9tSHn9rsyd1P--87" value="" style="rounded=0;whiteSpace=wrap;html=1;" vertex="1" parent="1">
          <mxGeometry x="-645" y="1170" width="735" height="680" as="geometry" />
        </mxCell>
        <mxCell id="RgCG5Li9tSHn9rsyd1P--89" value="&lt;span style=&quot;font-size: 15px;&quot;&gt;调度服务端&lt;/span&gt;" style="shape=umlActor;verticalLabelPosition=bottom;verticalAlign=top;html=1;outlineConnect=0;" vertex="1" parent="1">
          <mxGeometry x="-750" y="1460" width="30" height="60" as="geometry" />
        </mxCell>
        <mxCell id="RgCG5Li9tSHn9rsyd1P--91" value="&lt;font style=&quot;font-size: 17px;&quot;&gt;&amp;nbsp;节点注册与发现&lt;/font&gt;" style="ellipse;whiteSpace=wrap;html=1;" vertex="1" parent="1">
          <mxGeometry x="-260" y="1220" width="130" height="70" as="geometry" />
        </mxCell>
        <mxCell id="RgCG5Li9tSHn9rsyd1P--92" value="&lt;font style=&quot;font-size: 17px;&quot;&gt;&amp;nbsp;节点健康监控&lt;br&gt;与探针&lt;/font&gt;" style="ellipse;whiteSpace=wrap;html=1;" vertex="1" parent="1">
          <mxGeometry x="-150" y="1290" width="150" height="70" as="geometry" />
        </mxCell>
        <mxCell id="RgCG5Li9tSHn9rsyd1P--93" value="&lt;font style=&quot;font-size: 17px;&quot;&gt;&amp;nbsp;节点故障隔离&lt;br&gt;与恢复&lt;/font&gt;" style="ellipse;whiteSpace=wrap;html=1;" vertex="1" parent="1">
          <mxGeometry x="-290" y="1350" width="140" height="60" as="geometry" />
        </mxCell>
        <mxCell id="RgCG5Li9tSHn9rsyd1P--94" value="&lt;font style=&quot;font-size: 17px;&quot;&gt;集群任务队列管理&lt;/font&gt;" style="ellipse;whiteSpace=wrap;html=1;" vertex="1" parent="1">
          <mxGeometry x="-593.5" y="1450" width="144" height="70" as="geometry" />
        </mxCell>
        <mxCell id="RgCG5Li9tSHn9rsyd1P--96" value="&lt;span style=&quot;font-size: 16px;&quot;&gt;&amp;nbsp;节点池管理&amp;nbsp;&lt;/span&gt;" style="ellipse;whiteSpace=wrap;html=1;" vertex="1" parent="1">
          <mxGeometry x="-600" y="1280" width="157" height="80" as="geometry" />
        </mxCell>
        <mxCell id="RgCG5Li9tSHn9rsyd1P--97" value="&lt;font style=&quot;font-size: 16px;&quot;&gt;任务结果&lt;/font&gt;" style="ellipse;whiteSpace=wrap;html=1;" vertex="1" parent="1">
          <mxGeometry x="-607" y="1650" width="134" height="70" as="geometry" />
        </mxCell>
        <mxCell id="RgCG5Li9tSHn9rsyd1P--98" style="rounded=0;orthogonalLoop=1;jettySize=auto;html=1;entryX=0;entryY=0.5;entryDx=0;entryDy=0;exitX=1;exitY=0.5;exitDx=0;exitDy=0;dashed=1;" edge="1" parent="1" source="RgCG5Li9tSHn9rsyd1P--96" target="RgCG5Li9tSHn9rsyd1P--91">
          <mxGeometry relative="1" as="geometry">
            <mxPoint x="-253" y="1620" as="sourcePoint" />
            <mxPoint x="-390" y="1530" as="targetPoint" />
          </mxGeometry>
        </mxCell>
        <mxCell id="RgCG5Li9tSHn9rsyd1P--99" value="&lt;font style=&quot;font-size: 14px;&quot;&gt;&amp;lt;&amp;lt;include&amp;gt;&amp;gt;&lt;/font&gt;" style="edgeLabel;html=1;align=center;verticalAlign=middle;resizable=0;points=[];rotation=-20;" vertex="1" connectable="0" parent="RgCG5Li9tSHn9rsyd1P--98">
          <mxGeometry x="0.0307" y="3" relative="1" as="geometry">
            <mxPoint x="-7" y="-7" as="offset" />
          </mxGeometry>
        </mxCell>
        <mxCell id="RgCG5Li9tSHn9rsyd1P--100" style="rounded=0;orthogonalLoop=1;jettySize=auto;html=1;entryX=0;entryY=0.5;entryDx=0;entryDy=0;exitX=1;exitY=0.5;exitDx=0;exitDy=0;dashed=1;" edge="1" parent="1" source="RgCG5Li9tSHn9rsyd1P--96" target="RgCG5Li9tSHn9rsyd1P--93">
          <mxGeometry relative="1" as="geometry">
            <mxPoint x="-273" y="1710" as="sourcePoint" />
            <mxPoint x="-410" y="1620" as="targetPoint" />
          </mxGeometry>
        </mxCell>
        <mxCell id="RgCG5Li9tSHn9rsyd1P--101" value="&lt;font style=&quot;font-size: 14px;&quot;&gt;&amp;lt;&amp;lt;include&amp;gt;&amp;gt;&lt;/font&gt;" style="edgeLabel;html=1;align=center;verticalAlign=middle;resizable=0;points=[];rotation=25;" vertex="1" connectable="0" parent="RgCG5Li9tSHn9rsyd1P--100">
          <mxGeometry x="0.0307" y="3" relative="1" as="geometry">
            <mxPoint x="12" y="-3" as="offset" />
          </mxGeometry>
        </mxCell>
        <mxCell id="RgCG5Li9tSHn9rsyd1P--102" style="rounded=0;orthogonalLoop=1;jettySize=auto;html=1;entryX=0;entryY=0.5;entryDx=0;entryDy=0;exitX=1;exitY=0.5;exitDx=0;exitDy=0;dashed=1;" edge="1" parent="1" source="RgCG5Li9tSHn9rsyd1P--96" target="RgCG5Li9tSHn9rsyd1P--92">
          <mxGeometry relative="1" as="geometry">
            <mxPoint x="-263" y="1730" as="sourcePoint" />
            <mxPoint x="-400" y="1640" as="targetPoint" />
          </mxGeometry>
        </mxCell>
        <mxCell id="RgCG5Li9tSHn9rsyd1P--103" value="&lt;font style=&quot;font-size: 14px;&quot;&gt;&amp;lt;&amp;lt;include&amp;gt;&amp;gt;&lt;/font&gt;" style="edgeLabel;html=1;align=center;verticalAlign=middle;resizable=0;points=[];rotation=0;" vertex="1" connectable="0" parent="RgCG5Li9tSHn9rsyd1P--102">
          <mxGeometry x="0.0307" y="3" relative="1" as="geometry">
            <mxPoint x="8" y="-7" as="offset" />
          </mxGeometry>
        </mxCell>
        <mxCell id="RgCG5Li9tSHn9rsyd1P--104" value="&lt;font style=&quot;font-size: 16px;&quot;&gt;任务调度与分发需求用例图&lt;/font&gt;" style="text;html=1;align=center;verticalAlign=middle;whiteSpace=wrap;rounded=0;" vertex="1" parent="1">
          <mxGeometry x="-410" y="1170" width="200" height="30" as="geometry" />
        </mxCell>
        <mxCell id="RgCG5Li9tSHn9rsyd1P--105" style="rounded=0;orthogonalLoop=1;jettySize=auto;html=1;entryX=0;entryY=0.5;entryDx=0;entryDy=0;" edge="1" parent="1" target="RgCG5Li9tSHn9rsyd1P--96">
          <mxGeometry relative="1" as="geometry">
            <mxPoint x="-720" y="1480" as="sourcePoint" />
            <mxPoint x="-547" y="1440" as="targetPoint" />
          </mxGeometry>
        </mxCell>
        <mxCell id="RgCG5Li9tSHn9rsyd1P--106" style="rounded=0;orthogonalLoop=1;jettySize=auto;html=1;entryX=0;entryY=0.5;entryDx=0;entryDy=0;exitX=1;exitY=0.3333333333333333;exitDx=0;exitDy=0;exitPerimeter=0;" edge="1" parent="1" source="RgCG5Li9tSHn9rsyd1P--89" target="RgCG5Li9tSHn9rsyd1P--94">
          <mxGeometry relative="1" as="geometry">
            <mxPoint x="-630" y="1635" as="sourcePoint" />
            <mxPoint x="-487" y="1490" as="targetPoint" />
          </mxGeometry>
        </mxCell>
        <mxCell id="RgCG5Li9tSHn9rsyd1P--107" style="rounded=0;orthogonalLoop=1;jettySize=auto;html=1;entryX=0;entryY=0.5;entryDx=0;entryDy=0;exitX=1;exitY=0.3333333333333333;exitDx=0;exitDy=0;exitPerimeter=0;" edge="1" parent="1" source="RgCG5Li9tSHn9rsyd1P--89" target="RgCG5Li9tSHn9rsyd1P--97">
          <mxGeometry relative="1" as="geometry">
            <mxPoint x="-680" y="1685" as="sourcePoint" />
            <mxPoint x="-537" y="1540" as="targetPoint" />
          </mxGeometry>
        </mxCell>
        <mxCell id="RgCG5Li9tSHn9rsyd1P--110" value="&lt;font style=&quot;font-size: 17px;&quot;&gt;结果回收&lt;/font&gt;" style="ellipse;whiteSpace=wrap;html=1;" vertex="1" parent="1">
          <mxGeometry x="-320" y="1650" width="144" height="70" as="geometry" />
        </mxCell>
        <mxCell id="RgCG5Li9tSHn9rsyd1P--111" value="&lt;font style=&quot;font-size: 17px;&quot;&gt;缓存亲和性&lt;br&gt;任务调度&lt;/font&gt;" style="ellipse;whiteSpace=wrap;html=1;" vertex="1" parent="1">
          <mxGeometry x="-252" y="1490" width="152" height="70" as="geometry" />
        </mxCell>
        <mxCell id="RgCG5Li9tSHn9rsyd1P--112" value="&lt;font style=&quot;font-size: 17px;&quot;&gt;基于资源匹配的&lt;br&gt;任务分配&amp;nbsp;&amp;nbsp;&lt;/font&gt;" style="ellipse;whiteSpace=wrap;html=1;" vertex="1" parent="1">
          <mxGeometry x="-196" y="1400" width="150" height="70" as="geometry" />
        </mxCell>
        <mxCell id="RgCG5Li9tSHn9rsyd1P--113" value="&lt;font style=&quot;font-size: 17px;&quot;&gt;缓存更新&lt;/font&gt;" style="ellipse;whiteSpace=wrap;html=1;" vertex="1" parent="1">
          <mxGeometry x="-340" y="1760" width="144" height="70" as="geometry" />
        </mxCell>
        <mxCell id="RgCG5Li9tSHn9rsyd1P--115" value="&lt;font style=&quot;font-size: 17px;&quot;&gt;任务执行状态跟踪&amp;nbsp;&lt;/font&gt;" style="ellipse;whiteSpace=wrap;html=1;" vertex="1" parent="1">
          <mxGeometry x="-330" y="1560" width="144" height="70" as="geometry" />
        </mxCell>
        <mxCell id="RgCG5Li9tSHn9rsyd1P--116" value="&lt;font style=&quot;font-size: 16px;&quot;&gt;任务故障重试与&lt;br&gt;节点避让&amp;nbsp;&lt;/font&gt;" style="ellipse;whiteSpace=wrap;html=1;" vertex="1" parent="1">
          <mxGeometry x="-70" y="1560" width="144" height="70" as="geometry" />
        </mxCell>
        <mxCell id="RgCG5Li9tSHn9rsyd1P--117" style="rounded=0;orthogonalLoop=1;jettySize=auto;html=1;entryX=0;entryY=0.5;entryDx=0;entryDy=0;exitX=1;exitY=0.5;exitDx=0;exitDy=0;dashed=1;" edge="1" parent="1" source="RgCG5Li9tSHn9rsyd1P--94" target="RgCG5Li9tSHn9rsyd1P--112">
          <mxGeometry relative="1" as="geometry">
            <mxPoint x="-350" y="1370" as="sourcePoint" />
            <mxPoint x="-197" y="1440" as="targetPoint" />
          </mxGeometry>
        </mxCell>
        <mxCell id="RgCG5Li9tSHn9rsyd1P--118" value="&lt;font style=&quot;font-size: 14px;&quot;&gt;&amp;lt;&amp;lt;include&amp;gt;&amp;gt;&lt;/font&gt;" style="edgeLabel;html=1;align=center;verticalAlign=middle;resizable=0;points=[];rotation=-10;" vertex="1" connectable="0" parent="RgCG5Li9tSHn9rsyd1P--117">
          <mxGeometry x="0.0307" y="3" relative="1" as="geometry">
            <mxPoint x="6" y="-9" as="offset" />
          </mxGeometry>
        </mxCell>
        <mxCell id="RgCG5Li9tSHn9rsyd1P--119" style="rounded=0;orthogonalLoop=1;jettySize=auto;html=1;entryX=0;entryY=0.5;entryDx=0;entryDy=0;exitX=1;exitY=0.5;exitDx=0;exitDy=0;dashed=1;" edge="1" parent="1" source="RgCG5Li9tSHn9rsyd1P--94" target="RgCG5Li9tSHn9rsyd1P--111">
          <mxGeometry relative="1" as="geometry">
            <mxPoint x="-310" y="1470" as="sourcePoint" />
            <mxPoint x="-157" y="1540" as="targetPoint" />
          </mxGeometry>
        </mxCell>
        <mxCell id="RgCG5Li9tSHn9rsyd1P--120" value="&lt;font style=&quot;font-size: 14px;&quot;&gt;&amp;lt;&amp;lt;include&amp;gt;&amp;gt;&lt;/font&gt;" style="edgeLabel;html=1;align=center;verticalAlign=middle;resizable=0;points=[];rotation=10;" vertex="1" connectable="0" parent="RgCG5Li9tSHn9rsyd1P--119">
          <mxGeometry x="0.0307" y="3" relative="1" as="geometry">
            <mxPoint x="22" y="-3" as="offset" />
          </mxGeometry>
        </mxCell>
        <mxCell id="RgCG5Li9tSHn9rsyd1P--121" style="rounded=0;orthogonalLoop=1;jettySize=auto;html=1;entryX=0;entryY=0.5;entryDx=0;entryDy=0;exitX=1;exitY=0.5;exitDx=0;exitDy=0;dashed=1;" edge="1" parent="1" source="RgCG5Li9tSHn9rsyd1P--94" target="RgCG5Li9tSHn9rsyd1P--115">
          <mxGeometry relative="1" as="geometry">
            <mxPoint x="-270" y="1590" as="sourcePoint" />
            <mxPoint x="-117" y="1660" as="targetPoint" />
          </mxGeometry>
        </mxCell>
        <mxCell id="RgCG5Li9tSHn9rsyd1P--122" value="&lt;font style=&quot;font-size: 14px;&quot;&gt;&amp;lt;&amp;lt;include&amp;gt;&amp;gt;&lt;/font&gt;" style="edgeLabel;html=1;align=center;verticalAlign=middle;resizable=0;points=[];rotation=45;" vertex="1" connectable="0" parent="RgCG5Li9tSHn9rsyd1P--121">
          <mxGeometry x="0.0307" y="3" relative="1" as="geometry">
            <mxPoint x="11" y="-1" as="offset" />
          </mxGeometry>
        </mxCell>
        <mxCell id="RgCG5Li9tSHn9rsyd1P--125" style="rounded=0;orthogonalLoop=1;jettySize=auto;html=1;entryX=0.025;entryY=0.439;entryDx=0;entryDy=0;exitX=1;exitY=0.5;exitDx=0;exitDy=0;dashed=1;entryPerimeter=0;" edge="1" parent="1" source="RgCG5Li9tSHn9rsyd1P--97" target="RgCG5Li9tSHn9rsyd1P--110">
          <mxGeometry relative="1" as="geometry">
            <mxPoint x="-420" y="1530" as="sourcePoint" />
            <mxPoint x="-331" y="1640" as="targetPoint" />
          </mxGeometry>
        </mxCell>
        <mxCell id="RgCG5Li9tSHn9rsyd1P--126" value="&lt;font style=&quot;font-size: 14px;&quot;&gt;&amp;lt;&amp;lt;include&amp;gt;&amp;gt;&lt;/font&gt;" style="edgeLabel;html=1;align=center;verticalAlign=middle;resizable=0;points=[];rotation=0;" vertex="1" connectable="0" parent="RgCG5Li9tSHn9rsyd1P--125">
          <mxGeometry x="0.0307" y="3" relative="1" as="geometry">
            <mxPoint x="9" y="-8" as="offset" />
          </mxGeometry>
        </mxCell>
        <mxCell id="RgCG5Li9tSHn9rsyd1P--127" style="rounded=0;orthogonalLoop=1;jettySize=auto;html=1;entryX=0;entryY=0.5;entryDx=0;entryDy=0;exitX=1;exitY=0.5;exitDx=0;exitDy=0;dashed=1;" edge="1" parent="1" source="RgCG5Li9tSHn9rsyd1P--97" target="RgCG5Li9tSHn9rsyd1P--113">
          <mxGeometry relative="1" as="geometry">
            <mxPoint x="-370" y="1710" as="sourcePoint" />
            <mxPoint x="-281" y="1820" as="targetPoint" />
          </mxGeometry>
        </mxCell>
        <mxCell id="RgCG5Li9tSHn9rsyd1P--128" value="&lt;font style=&quot;font-size: 14px;&quot;&gt;&amp;lt;&amp;lt;include&amp;gt;&amp;gt;&lt;/font&gt;" style="edgeLabel;html=1;align=center;verticalAlign=middle;resizable=0;points=[];rotation=40;" vertex="1" connectable="0" parent="RgCG5Li9tSHn9rsyd1P--127">
          <mxGeometry x="0.0307" y="3" relative="1" as="geometry">
            <mxPoint x="11" y="-3" as="offset" />
          </mxGeometry>
        </mxCell>
        <mxCell id="RgCG5Li9tSHn9rsyd1P--130" style="rounded=0;orthogonalLoop=1;jettySize=auto;html=1;entryX=1;entryY=0.5;entryDx=0;entryDy=0;dashed=1;" edge="1" parent="1" source="RgCG5Li9tSHn9rsyd1P--116" target="RgCG5Li9tSHn9rsyd1P--115">
          <mxGeometry relative="1" as="geometry">
            <mxPoint x="-165" y="1595" as="sourcePoint" />
            <mxPoint x="-46" y="1705" as="targetPoint" />
          </mxGeometry>
        </mxCell>
        <mxCell id="RgCG5Li9tSHn9rsyd1P--131" value="&lt;font style=&quot;font-size: 14px;&quot;&gt;&amp;lt;&amp;lt;extends&amp;gt;&amp;gt;&lt;/font&gt;" style="edgeLabel;html=1;align=center;verticalAlign=middle;resizable=0;points=[];rotation=0;" vertex="1" connectable="0" parent="RgCG5Li9tSHn9rsyd1P--130">
          <mxGeometry x="0.0307" y="3" relative="1" as="geometry">
            <mxPoint x="9" y="-13" as="offset" />
          </mxGeometry>
        </mxCell>
        <mxCell id="RgCG5Li9tSHn9rsyd1P--132" value="" style="rounded=0;whiteSpace=wrap;html=1;" vertex="1" parent="1">
          <mxGeometry x="935" y="120" width="675" height="590" as="geometry" />
        </mxCell>
        <mxCell id="RgCG5Li9tSHn9rsyd1P--133" value="&lt;span style=&quot;font-size: 15px;&quot;&gt;缓存服务端&lt;/span&gt;" style="shape=umlActor;verticalLabelPosition=bottom;verticalAlign=top;html=1;outlineConnect=0;" vertex="1" parent="1">
          <mxGeometry x="830" y="410" width="30" height="60" as="geometry" />
        </mxCell>
        <mxCell id="RgCG5Li9tSHn9rsyd1P--134" value="&lt;font style=&quot;font-size: 17px;&quot;&gt;本地节点缓存&lt;br&gt;命中查询&lt;/font&gt;" style="ellipse;whiteSpace=wrap;html=1;" vertex="1" parent="1">
          <mxGeometry x="1355" y="200" width="140" height="70" as="geometry" />
        </mxCell>
        <mxCell id="RgCG5Li9tSHn9rsyd1P--135" value="&lt;span style=&quot;font-size: 17px;&quot;&gt;AC 缓存命中查询&lt;/span&gt;" style="ellipse;whiteSpace=wrap;html=1;" vertex="1" parent="1">
          <mxGeometry x="1440" y="270" width="150" height="70" as="geometry" />
        </mxCell>
        <mxCell id="RgCG5Li9tSHn9rsyd1P--136" value="&lt;span style=&quot;font-size: 17px;&quot;&gt;&amp;nbsp;CAS 内容&lt;br&gt;存在性校验&lt;/span&gt;" style="ellipse;whiteSpace=wrap;html=1;" vertex="1" parent="1">
          <mxGeometry x="1310" y="330" width="140" height="60" as="geometry" />
        </mxCell>
        <mxCell id="RgCG5Li9tSHn9rsyd1P--137" value="&lt;font style=&quot;font-size: 17px;&quot;&gt;缓存写入&lt;/font&gt;" style="ellipse;whiteSpace=wrap;html=1;" vertex="1" parent="1">
          <mxGeometry x="1026.5" y="360" width="143.5" height="70" as="geometry" />
        </mxCell>
        <mxCell id="RgCG5Li9tSHn9rsyd1P--138" value="&lt;span style=&quot;font-size: 16px;&quot;&gt;缓存命中&lt;/span&gt;" style="ellipse;whiteSpace=wrap;html=1;" vertex="1" parent="1">
          <mxGeometry x="1000" y="230" width="150" height="80" as="geometry" />
        </mxCell>
        <mxCell id="RgCG5Li9tSHn9rsyd1P--139" value="&lt;font style=&quot;font-size: 16px;&quot;&gt;编译依赖缓存&lt;/font&gt;" style="ellipse;whiteSpace=wrap;html=1;" vertex="1" parent="1">
          <mxGeometry x="1100" y="440" width="134" height="70" as="geometry" />
        </mxCell>
        <mxCell id="RgCG5Li9tSHn9rsyd1P--140" style="rounded=0;orthogonalLoop=1;jettySize=auto;html=1;entryX=0;entryY=0.5;entryDx=0;entryDy=0;exitX=1;exitY=0.5;exitDx=0;exitDy=0;dashed=1;" edge="1" parent="1" source="RgCG5Li9tSHn9rsyd1P--138" target="RgCG5Li9tSHn9rsyd1P--134">
          <mxGeometry relative="1" as="geometry">
            <mxPoint x="1327" y="570" as="sourcePoint" />
            <mxPoint x="1190" y="480" as="targetPoint" />
          </mxGeometry>
        </mxCell>
        <mxCell id="RgCG5Li9tSHn9rsyd1P--141" value="&lt;font style=&quot;font-size: 14px;&quot;&gt;&amp;lt;&amp;lt;include&amp;gt;&amp;gt;&lt;/font&gt;" style="edgeLabel;html=1;align=center;verticalAlign=middle;resizable=0;points=[];rotation=-10;" vertex="1" connectable="0" parent="RgCG5Li9tSHn9rsyd1P--140">
          <mxGeometry x="0.0307" y="3" relative="1" as="geometry">
            <mxPoint x="22" y="-14" as="offset" />
          </mxGeometry>
        </mxCell>
        <mxCell id="RgCG5Li9tSHn9rsyd1P--142" style="rounded=0;orthogonalLoop=1;jettySize=auto;html=1;entryX=0;entryY=0.5;entryDx=0;entryDy=0;exitX=1;exitY=0.5;exitDx=0;exitDy=0;dashed=1;" edge="1" parent="1" source="RgCG5Li9tSHn9rsyd1P--138" target="RgCG5Li9tSHn9rsyd1P--136">
          <mxGeometry relative="1" as="geometry">
            <mxPoint x="1307" y="660" as="sourcePoint" />
            <mxPoint x="1170" y="570" as="targetPoint" />
          </mxGeometry>
        </mxCell>
        <mxCell id="RgCG5Li9tSHn9rsyd1P--143" value="&lt;font style=&quot;font-size: 14px;&quot;&gt;&amp;lt;&amp;lt;include&amp;gt;&amp;gt;&lt;/font&gt;" style="edgeLabel;html=1;align=center;verticalAlign=middle;resizable=0;points=[];rotation=30;" vertex="1" connectable="0" parent="RgCG5Li9tSHn9rsyd1P--142">
          <mxGeometry x="0.0307" y="3" relative="1" as="geometry">
            <mxPoint x="17" y="-1" as="offset" />
          </mxGeometry>
        </mxCell>
        <mxCell id="RgCG5Li9tSHn9rsyd1P--144" style="rounded=0;orthogonalLoop=1;jettySize=auto;html=1;entryX=0;entryY=0.5;entryDx=0;entryDy=0;exitX=1;exitY=0.5;exitDx=0;exitDy=0;dashed=1;" edge="1" parent="1" source="RgCG5Li9tSHn9rsyd1P--138" target="RgCG5Li9tSHn9rsyd1P--135">
          <mxGeometry relative="1" as="geometry">
            <mxPoint x="1317" y="680" as="sourcePoint" />
            <mxPoint x="1180" y="590" as="targetPoint" />
          </mxGeometry>
        </mxCell>
        <mxCell id="RgCG5Li9tSHn9rsyd1P--145" value="&lt;font style=&quot;font-size: 14px;&quot;&gt;&amp;lt;&amp;lt;include&amp;gt;&amp;gt;&lt;/font&gt;" style="edgeLabel;html=1;align=center;verticalAlign=middle;resizable=0;points=[];rotation=10;" vertex="1" connectable="0" parent="RgCG5Li9tSHn9rsyd1P--144">
          <mxGeometry x="0.0307" y="3" relative="1" as="geometry">
            <mxPoint x="8" y="-7" as="offset" />
          </mxGeometry>
        </mxCell>
        <mxCell id="RgCG5Li9tSHn9rsyd1P--146" value="&lt;font style=&quot;font-size: 16px;&quot;&gt;缓存管理需求用例图&lt;/font&gt;" style="text;html=1;align=center;verticalAlign=middle;whiteSpace=wrap;rounded=0;" vertex="1" parent="1">
          <mxGeometry x="1170" y="120" width="200" height="30" as="geometry" />
        </mxCell>
        <mxCell id="RgCG5Li9tSHn9rsyd1P--147" style="rounded=0;orthogonalLoop=1;jettySize=auto;html=1;entryX=0;entryY=0.5;entryDx=0;entryDy=0;" edge="1" parent="1" target="RgCG5Li9tSHn9rsyd1P--138">
          <mxGeometry relative="1" as="geometry">
            <mxPoint x="860" y="430" as="sourcePoint" />
            <mxPoint x="1033" y="390" as="targetPoint" />
          </mxGeometry>
        </mxCell>
        <mxCell id="RgCG5Li9tSHn9rsyd1P--148" style="rounded=0;orthogonalLoop=1;jettySize=auto;html=1;entryX=0;entryY=0.5;entryDx=0;entryDy=0;exitX=1;exitY=0.3333333333333333;exitDx=0;exitDy=0;exitPerimeter=0;" edge="1" parent="1" source="RgCG5Li9tSHn9rsyd1P--133" target="RgCG5Li9tSHn9rsyd1P--137">
          <mxGeometry relative="1" as="geometry">
            <mxPoint x="950" y="585" as="sourcePoint" />
            <mxPoint x="1093" y="440" as="targetPoint" />
          </mxGeometry>
        </mxCell>
        <mxCell id="RgCG5Li9tSHn9rsyd1P--149" style="rounded=0;orthogonalLoop=1;jettySize=auto;html=1;entryX=0;entryY=0.5;entryDx=0;entryDy=0;exitX=1;exitY=0.3333333333333333;exitDx=0;exitDy=0;exitPerimeter=0;" edge="1" parent="1" source="RgCG5Li9tSHn9rsyd1P--133" target="RgCG5Li9tSHn9rsyd1P--139">
          <mxGeometry relative="1" as="geometry">
            <mxPoint x="900" y="635" as="sourcePoint" />
            <mxPoint x="1043" y="490" as="targetPoint" />
          </mxGeometry>
        </mxCell>
        <mxCell id="RgCG5Li9tSHn9rsyd1P--151" value="&lt;span style=&quot;font-size: 17px;&quot;&gt;上传输出文件&lt;br&gt;到 CAS&lt;/span&gt;" style="ellipse;whiteSpace=wrap;html=1;" vertex="1" parent="1">
          <mxGeometry x="1390" y="460" width="152" height="70" as="geometry" />
        </mxCell>
        <mxCell id="RgCG5Li9tSHn9rsyd1P--152" value="&lt;span style=&quot;font-size: 17px;&quot;&gt;写入 Action 缓存&lt;/span&gt;" style="ellipse;whiteSpace=wrap;html=1;" vertex="1" parent="1">
          <mxGeometry x="1410" y="380" width="150" height="70" as="geometry" />
        </mxCell>
        <mxCell id="RgCG5Li9tSHn9rsyd1P--156" style="rounded=0;orthogonalLoop=1;jettySize=auto;html=1;entryX=0;entryY=0.5;entryDx=0;entryDy=0;exitX=1;exitY=0.5;exitDx=0;exitDy=0;dashed=1;" edge="1" parent="1" source="RgCG5Li9tSHn9rsyd1P--137" target="RgCG5Li9tSHn9rsyd1P--152">
          <mxGeometry relative="1" as="geometry">
            <mxPoint x="1230" y="320" as="sourcePoint" />
            <mxPoint x="1383" y="390" as="targetPoint" />
          </mxGeometry>
        </mxCell>
        <mxCell id="RgCG5Li9tSHn9rsyd1P--157" value="&lt;font style=&quot;font-size: 14px;&quot;&gt;&amp;lt;&amp;lt;include&amp;gt;&amp;gt;&lt;/font&gt;" style="edgeLabel;html=1;align=center;verticalAlign=middle;resizable=0;points=[];rotation=10;" vertex="1" connectable="0" parent="RgCG5Li9tSHn9rsyd1P--156">
          <mxGeometry x="0.0307" y="3" relative="1" as="geometry">
            <mxPoint x="6" y="-10" as="offset" />
          </mxGeometry>
        </mxCell>
        <mxCell id="RgCG5Li9tSHn9rsyd1P--158" style="rounded=0;orthogonalLoop=1;jettySize=auto;html=1;entryX=0;entryY=0.5;entryDx=0;entryDy=0;exitX=1;exitY=0.5;exitDx=0;exitDy=0;dashed=1;" edge="1" parent="1" source="RgCG5Li9tSHn9rsyd1P--137" target="RgCG5Li9tSHn9rsyd1P--151">
          <mxGeometry relative="1" as="geometry">
            <mxPoint x="1270" y="420" as="sourcePoint" />
            <mxPoint x="1423" y="490" as="targetPoint" />
          </mxGeometry>
        </mxCell>
        <mxCell id="RgCG5Li9tSHn9rsyd1P--159" value="&lt;font style=&quot;font-size: 14px;&quot;&gt;&amp;lt;&amp;lt;include&amp;gt;&amp;gt;&lt;/font&gt;" style="edgeLabel;html=1;align=center;verticalAlign=middle;resizable=0;points=[];rotation=25;" vertex="1" connectable="0" parent="RgCG5Li9tSHn9rsyd1P--158">
          <mxGeometry x="0.0307" y="3" relative="1" as="geometry">
            <mxPoint x="20" y="1" as="offset" />
          </mxGeometry>
        </mxCell>
        <mxCell id="RgCG5Li9tSHn9rsyd1P--168" value="&lt;font style=&quot;font-size: 17px;&quot;&gt;缓存一致性校验&lt;/font&gt;" style="ellipse;whiteSpace=wrap;html=1;" vertex="1" parent="1">
          <mxGeometry x="1095.25" y="520" width="143.5" height="70" as="geometry" />
        </mxCell>
        <mxCell id="RgCG5Li9tSHn9rsyd1P--169" value="&lt;font style=&quot;font-size: 17px;&quot;&gt;缓存失效与&lt;br&gt;淘汰管理&lt;/font&gt;" style="ellipse;whiteSpace=wrap;html=1;" vertex="1" parent="1">
          <mxGeometry x="1070" y="620" width="143.5" height="70" as="geometry" />
        </mxCell>
        <mxCell id="RgCG5Li9tSHn9rsyd1P--170" style="rounded=0;orthogonalLoop=1;jettySize=auto;html=1;entryX=0;entryY=0.5;entryDx=0;entryDy=0;" edge="1" parent="1" target="RgCG5Li9tSHn9rsyd1P--168">
          <mxGeometry relative="1" as="geometry">
            <mxPoint x="860" y="430" as="sourcePoint" />
            <mxPoint x="1200" y="645" as="targetPoint" />
          </mxGeometry>
        </mxCell>
        <mxCell id="RgCG5Li9tSHn9rsyd1P--171" style="rounded=0;orthogonalLoop=1;jettySize=auto;html=1;entryX=0;entryY=0.5;entryDx=0;entryDy=0;" edge="1" parent="1" target="RgCG5Li9tSHn9rsyd1P--169">
          <mxGeometry relative="1" as="geometry">
            <mxPoint x="860" y="430" as="sourcePoint" />
            <mxPoint x="1250" y="805" as="targetPoint" />
          </mxGeometry>
        </mxCell>
        <mxCell id="RgCG5Li9tSHn9rsyd1P--172" value="" style="rounded=0;whiteSpace=wrap;html=1;" vertex="1" parent="1">
          <mxGeometry x="563.75" y="1110" width="636.25" height="590" as="geometry" />
        </mxCell>
        <mxCell id="RgCG5Li9tSHn9rsyd1P--173" value="&lt;span style=&quot;font-size: 15px;&quot;&gt;远程服务端&lt;/span&gt;" style="shape=umlActor;verticalLabelPosition=bottom;verticalAlign=top;html=1;outlineConnect=0;" vertex="1" parent="1">
          <mxGeometry x="458.75" y="1400" width="30" height="60" as="geometry" />
        </mxCell>
        <mxCell id="RgCG5Li9tSHn9rsyd1P--174" value="&lt;span style=&quot;font-size: 17px;&quot;&gt;解析任务元数据&lt;/span&gt;" style="ellipse;whiteSpace=wrap;html=1;" vertex="1" parent="1">
          <mxGeometry x="990" y="1160" width="140" height="70" as="geometry" />
        </mxCell>
        <mxCell id="RgCG5Li9tSHn9rsyd1P--175" value="&lt;span style=&quot;font-size: 17px;&quot;&gt;检查任务格式&lt;br&gt;合法性&lt;/span&gt;" style="ellipse;whiteSpace=wrap;html=1;" vertex="1" parent="1">
          <mxGeometry x="935" y="1240" width="150" height="70" as="geometry" />
        </mxCell>
        <mxCell id="RgCG5Li9tSHn9rsyd1P--177" value="&lt;font style=&quot;font-size: 17px;&quot;&gt;下载任务&lt;br&gt;输入文件与依赖&lt;/font&gt;" style="ellipse;whiteSpace=wrap;html=1;" vertex="1" parent="1">
          <mxGeometry x="770" y="1320" width="143.5" height="70" as="geometry" />
        </mxCell>
        <mxCell id="RgCG5Li9tSHn9rsyd1P--178" value="&lt;span style=&quot;font-size: 16px;&quot;&gt;接收远程任务&lt;br&gt;与元数据&lt;/span&gt;" style="ellipse;whiteSpace=wrap;html=1;" vertex="1" parent="1">
          <mxGeometry x="628.75" y="1220" width="150" height="80" as="geometry" />
        </mxCell>
        <mxCell id="RgCG5Li9tSHn9rsyd1P--179" value="&lt;font style=&quot;font-size: 16px;&quot;&gt;搜集中间产物&lt;/font&gt;" style="ellipse;whiteSpace=wrap;html=1;" vertex="1" parent="1">
          <mxGeometry x="750" y="1410" width="134" height="70" as="geometry" />
        </mxCell>
        <mxCell id="RgCG5Li9tSHn9rsyd1P--180" style="rounded=0;orthogonalLoop=1;jettySize=auto;html=1;entryX=0;entryY=0.5;entryDx=0;entryDy=0;exitX=1;exitY=0.5;exitDx=0;exitDy=0;dashed=1;" edge="1" parent="1" source="RgCG5Li9tSHn9rsyd1P--178" target="RgCG5Li9tSHn9rsyd1P--174">
          <mxGeometry relative="1" as="geometry">
            <mxPoint x="955.75" y="1560" as="sourcePoint" />
            <mxPoint x="818.75" y="1470" as="targetPoint" />
          </mxGeometry>
        </mxCell>
        <mxCell id="RgCG5Li9tSHn9rsyd1P--181" value="&lt;font style=&quot;font-size: 14px;&quot;&gt;&amp;lt;&amp;lt;include&amp;gt;&amp;gt;&lt;/font&gt;" style="edgeLabel;html=1;align=center;verticalAlign=middle;resizable=0;points=[];rotation=-15;" vertex="1" connectable="0" parent="RgCG5Li9tSHn9rsyd1P--180">
          <mxGeometry x="0.0307" y="3" relative="1" as="geometry">
            <mxPoint x="22" y="-15" as="offset" />
          </mxGeometry>
        </mxCell>
        <mxCell id="RgCG5Li9tSHn9rsyd1P--184" style="rounded=0;orthogonalLoop=1;jettySize=auto;html=1;entryX=0;entryY=0.5;entryDx=0;entryDy=0;exitX=1;exitY=0.5;exitDx=0;exitDy=0;dashed=1;" edge="1" parent="1" source="RgCG5Li9tSHn9rsyd1P--178" target="RgCG5Li9tSHn9rsyd1P--175">
          <mxGeometry relative="1" as="geometry">
            <mxPoint x="945.75" y="1670" as="sourcePoint" />
            <mxPoint x="808.75" y="1580" as="targetPoint" />
          </mxGeometry>
        </mxCell>
        <mxCell id="RgCG5Li9tSHn9rsyd1P--185" value="&lt;font style=&quot;font-size: 14px;&quot;&gt;&amp;lt;&amp;lt;include&amp;gt;&amp;gt;&lt;/font&gt;" style="edgeLabel;html=1;align=center;verticalAlign=middle;resizable=0;points=[];rotation=0;" vertex="1" connectable="0" parent="RgCG5Li9tSHn9rsyd1P--184">
          <mxGeometry x="0.0307" y="3" relative="1" as="geometry">
            <mxPoint x="8" y="-8" as="offset" />
          </mxGeometry>
        </mxCell>
        <mxCell id="RgCG5Li9tSHn9rsyd1P--186" value="&lt;font style=&quot;font-size: 16px;&quot;&gt;远程执行需求用例图&lt;/font&gt;" style="text;html=1;align=center;verticalAlign=middle;whiteSpace=wrap;rounded=0;" vertex="1" parent="1">
          <mxGeometry x="798.75" y="1110" width="200" height="30" as="geometry" />
        </mxCell>
        <mxCell id="RgCG5Li9tSHn9rsyd1P--187" style="rounded=0;orthogonalLoop=1;jettySize=auto;html=1;entryX=0;entryY=0.5;entryDx=0;entryDy=0;" edge="1" parent="1" target="RgCG5Li9tSHn9rsyd1P--178">
          <mxGeometry relative="1" as="geometry">
            <mxPoint x="488.75" y="1420" as="sourcePoint" />
            <mxPoint x="661.75" y="1380" as="targetPoint" />
          </mxGeometry>
        </mxCell>
        <mxCell id="RgCG5Li9tSHn9rsyd1P--188" style="rounded=0;orthogonalLoop=1;jettySize=auto;html=1;entryX=0;entryY=0.5;entryDx=0;entryDy=0;exitX=1;exitY=0.3333333333333333;exitDx=0;exitDy=0;exitPerimeter=0;" edge="1" parent="1" source="RgCG5Li9tSHn9rsyd1P--173" target="RgCG5Li9tSHn9rsyd1P--177">
          <mxGeometry relative="1" as="geometry">
            <mxPoint x="578.75" y="1575" as="sourcePoint" />
            <mxPoint x="721.75" y="1430" as="targetPoint" />
          </mxGeometry>
        </mxCell>
        <mxCell id="RgCG5Li9tSHn9rsyd1P--189" style="rounded=0;orthogonalLoop=1;jettySize=auto;html=1;entryX=0;entryY=0.5;entryDx=0;entryDy=0;exitX=1;exitY=0.3333333333333333;exitDx=0;exitDy=0;exitPerimeter=0;" edge="1" parent="1" source="RgCG5Li9tSHn9rsyd1P--173" target="RgCG5Li9tSHn9rsyd1P--179">
          <mxGeometry relative="1" as="geometry">
            <mxPoint x="528.75" y="1625" as="sourcePoint" />
            <mxPoint x="671.75" y="1480" as="targetPoint" />
          </mxGeometry>
        </mxCell>
        <mxCell id="RgCG5Li9tSHn9rsyd1P--196" value="&lt;font style=&quot;font-size: 17px;&quot;&gt;执行构建命令&lt;/font&gt;" style="ellipse;whiteSpace=wrap;html=1;" vertex="1" parent="1">
          <mxGeometry x="724" y="1510" width="143.5" height="70" as="geometry" />
        </mxCell>
        <mxCell id="RgCG5Li9tSHn9rsyd1P--197" value="&lt;span style=&quot;font-size: 17px;&quot;&gt;&amp;nbsp;返回构建结果&lt;br&gt;与状态&lt;/span&gt;" style="ellipse;whiteSpace=wrap;html=1;" vertex="1" parent="1">
          <mxGeometry x="716.5" y="1600" width="143.5" height="70" as="geometry" />
        </mxCell>
        <mxCell id="RgCG5Li9tSHn9rsyd1P--198" style="rounded=0;orthogonalLoop=1;jettySize=auto;html=1;entryX=0;entryY=0.5;entryDx=0;entryDy=0;" edge="1" parent="1" target="RgCG5Li9tSHn9rsyd1P--196">
          <mxGeometry relative="1" as="geometry">
            <mxPoint x="488.75" y="1420" as="sourcePoint" />
            <mxPoint x="828.75" y="1635" as="targetPoint" />
          </mxGeometry>
        </mxCell>
        <mxCell id="RgCG5Li9tSHn9rsyd1P--199" style="rounded=0;orthogonalLoop=1;jettySize=auto;html=1;entryX=0;entryY=0.5;entryDx=0;entryDy=0;" edge="1" parent="1" target="RgCG5Li9tSHn9rsyd1P--197">
          <mxGeometry relative="1" as="geometry">
            <mxPoint x="488.75" y="1420" as="sourcePoint" />
            <mxPoint x="878.75" y="1795" as="targetPoint" />
          </mxGeometry>
        </mxCell>
        <mxCell id="RgCG5Li9tSHn9rsyd1P--200" value="&lt;div&gt;&lt;span style=&quot;font-size: 16px;&quot;&gt;创建 Docker&lt;/span&gt;&lt;/div&gt;&lt;div&gt;&lt;span style=&quot;font-size: 16px;&quot;&gt;隔离环境&lt;/span&gt;&lt;/div&gt;" style="ellipse;whiteSpace=wrap;html=1;" vertex="1" parent="1">
          <mxGeometry x="1040" y="1520" width="134" height="70" as="geometry" />
        </mxCell>
        <mxCell id="RgCG5Li9tSHn9rsyd1P--201" style="rounded=0;orthogonalLoop=1;jettySize=auto;html=1;entryX=0;entryY=0.5;entryDx=0;entryDy=0;exitX=1;exitY=0.5;exitDx=0;exitDy=0;dashed=1;" edge="1" parent="1" source="RgCG5Li9tSHn9rsyd1P--196" target="RgCG5Li9tSHn9rsyd1P--200">
          <mxGeometry relative="1" as="geometry">
            <mxPoint x="970" y="1290" as="sourcePoint" />
            <mxPoint x="1190" y="1335" as="targetPoint" />
          </mxGeometry>
        </mxCell>
        <mxCell id="RgCG5Li9tSHn9rsyd1P--202" value="&lt;font style=&quot;font-size: 14px;&quot;&gt;&amp;lt;&amp;lt;include&amp;gt;&amp;gt;&lt;/font&gt;" style="edgeLabel;html=1;align=center;verticalAlign=middle;resizable=0;points=[];rotation=5;" vertex="1" connectable="0" parent="RgCG5Li9tSHn9rsyd1P--201">
          <mxGeometry x="0.0307" y="3" relative="1" as="geometry">
            <mxPoint x="8" y="-7" as="offset" />
          </mxGeometry>
        </mxCell>
        <mxCell id="RgCG5Li9tSHn9rsyd1P--203" value="&lt;span style=&quot;font-size: 16px;&quot;&gt;镜像选择&lt;/span&gt;" style="ellipse;whiteSpace=wrap;html=1;" vertex="1" parent="1">
          <mxGeometry x="1040" y="1430" width="134" height="70" as="geometry" />
        </mxCell>
        <mxCell id="RgCG5Li9tSHn9rsyd1P--207" value="&lt;span style=&quot;font-size: 16px;&quot;&gt;清理隔离环境&lt;br&gt;与临时文件&lt;/span&gt;" style="ellipse;whiteSpace=wrap;html=1;" vertex="1" parent="1">
          <mxGeometry x="990" y="1310" width="134" height="70" as="geometry" />
        </mxCell>
        <mxCell id="RgCG5Li9tSHn9rsyd1P--208" style="rounded=0;orthogonalLoop=1;jettySize=auto;html=1;entryX=1;entryY=0.5;entryDx=0;entryDy=0;exitX=0;exitY=0.5;exitDx=0;exitDy=0;dashed=1;" edge="1" parent="1" source="RgCG5Li9tSHn9rsyd1P--207" target="RgCG5Li9tSHn9rsyd1P--178">
          <mxGeometry relative="1" as="geometry">
            <mxPoint x="830" y="1312.5" as="sourcePoint" />
            <mxPoint x="986" y="1327.5" as="targetPoint" />
          </mxGeometry>
        </mxCell>
        <mxCell id="RgCG5Li9tSHn9rsyd1P--209" value="&lt;font style=&quot;font-size: 14px;&quot;&gt;&amp;lt;&amp;lt;extend&amp;gt;&amp;gt;&lt;/font&gt;" style="edgeLabel;html=1;align=center;verticalAlign=middle;resizable=0;points=[];rotation=20;" vertex="1" connectable="0" parent="RgCG5Li9tSHn9rsyd1P--208">
          <mxGeometry x="0.0307" y="3" relative="1" as="geometry">
            <mxPoint x="30" y="-4" as="offset" />
          </mxGeometry>
        </mxCell>
        <mxCell id="RgCG5Li9tSHn9rsyd1P--210" value="&lt;span style=&quot;font-size: 16px;&quot;&gt;处理任务执行异常&lt;/span&gt;" style="ellipse;whiteSpace=wrap;html=1;" vertex="1" parent="1">
          <mxGeometry x="1026.5" y="1615" width="134" height="70" as="geometry" />
        </mxCell>
        <mxCell id="RgCG5Li9tSHn9rsyd1P--211" style="rounded=0;orthogonalLoop=1;jettySize=auto;html=1;entryX=1;entryY=0.5;entryDx=0;entryDy=0;exitX=0;exitY=0.5;exitDx=0;exitDy=0;dashed=1;" edge="1" parent="1" source="RgCG5Li9tSHn9rsyd1P--210" target="RgCG5Li9tSHn9rsyd1P--196">
          <mxGeometry relative="1" as="geometry">
            <mxPoint x="1151" y="1445" as="sourcePoint" />
            <mxPoint x="940" y="1360" as="targetPoint" />
          </mxGeometry>
        </mxCell>
        <mxCell id="RgCG5Li9tSHn9rsyd1P--212" value="&lt;font style=&quot;font-size: 14px;&quot;&gt;&amp;lt;&amp;lt;extend&amp;gt;&amp;gt;&lt;/font&gt;" style="edgeLabel;html=1;align=center;verticalAlign=middle;resizable=0;points=[];rotation=35;" vertex="1" connectable="0" parent="RgCG5Li9tSHn9rsyd1P--211">
          <mxGeometry x="0.0307" y="3" relative="1" as="geometry">
            <mxPoint x="25" y="-1" as="offset" />
          </mxGeometry>
        </mxCell>
        <mxCell id="RgCG5Li9tSHn9rsyd1P--215" style="rounded=0;orthogonalLoop=1;jettySize=auto;html=1;entryX=0;entryY=0.5;entryDx=0;entryDy=0;exitX=1;exitY=0.5;exitDx=0;exitDy=0;dashed=1;" edge="1" parent="1" source="RgCG5Li9tSHn9rsyd1P--196" target="RgCG5Li9tSHn9rsyd1P--203">
          <mxGeometry relative="1" as="geometry">
            <mxPoint x="1000" y="1560" as="sourcePoint" />
            <mxPoint x="1169" y="1590" as="targetPoint" />
          </mxGeometry>
        </mxCell>
        <mxCell id="RgCG5Li9tSHn9rsyd1P--216" value="&lt;font style=&quot;font-size: 14px;&quot;&gt;&amp;lt;&amp;lt;include&amp;gt;&amp;gt;&lt;/font&gt;" style="edgeLabel;html=1;align=center;verticalAlign=middle;resizable=0;points=[];rotation=-25;" vertex="1" connectable="0" parent="RgCG5Li9tSHn9rsyd1P--215">
          <mxGeometry x="0.0307" y="3" relative="1" as="geometry">
            <mxPoint x="8" y="-13" as="offset" />
          </mxGeometry>
        </mxCell>
      </root>
    </mxGraphModel>
  </diagram>
</mxfile>
